<svg xmlns="http://www.w3.org/2000/svg" xmlns:xlink="http://www.w3.org/1999/xlink" width="500" zoomAndPan="magnify" viewBox="0 0 375 374.999991" height="500" preserveAspectRatio="xMidYMid meet" version="1.0"><defs><g/><clipPath id="e39a6bb6e5"><path d="M 73.578125 165.191406 L 109.882812 165.191406 L 109.882812 215 L 73.578125 215 Z M 73.578125 165.191406 " clip-rule="nonzero"/></clipPath><clipPath id="1d2b11c9f0"><path d="M 38 165.191406 L 73.578125 165.191406 L 73.578125 215 L 38 215 Z M 38 165.191406 " clip-rule="nonzero"/></clipPath><clipPath id="63173b886f"><path d="M 55.546875 169.820312 L 91.613281 169.820312 L 91.613281 179.105469 L 55.546875 179.105469 Z M 55.546875 169.820312 " clip-rule="nonzero"/></clipPath><clipPath id="6c6565cc2f"><path d="M 66.9375 146.761719 L 80.445312 146.761719 L 80.445312 169.554688 L 66.9375 169.554688 Z M 66.9375 146.761719 " clip-rule="nonzero"/></clipPath></defs><g fill="#ffd700" fill-opacity="1"><g transform="translate(119.906233, 194.709979)"><g><path d="M 8.640625 -0.46875 L 8.875 -0.46875 L 8.875 0 L 2.15625 0 L 2.15625 -0.46875 L 2.390625 -0.46875 C 2.640625 -0.46875 2.859375 -0.550781 3.046875 -0.71875 C 3.234375 -0.894531 3.394531 -1.109375 3.53125 -1.359375 C 3.675781 -1.609375 3.78125 -1.875 3.84375 -2.15625 C 3.90625 -2.4375 3.9375 -2.703125 3.9375 -2.953125 L 3.9375 -28.0625 C 3.9375 -28.28125 3.90625 -28.53125 3.84375 -28.8125 C 3.78125 -29.09375 3.6875 -29.359375 3.5625 -29.609375 C 3.4375 -29.867188 3.269531 -30.082031 3.0625 -30.25 C 2.863281 -30.425781 2.640625 -30.515625 2.390625 -30.515625 L 2.15625 -30.515625 L 2.15625 -30.984375 L 20.1875 -30.984375 L 20.1875 -26.609375 L 19.71875 -26.609375 C 19.71875 -27.328125 19.472656 -27.957031 18.984375 -28.5 C 18.503906 -29.050781 17.742188 -29.328125 16.703125 -29.328125 L 7.09375 -29.328125 L 7.09375 -17.453125 L 14.875 -17.453125 C 15.59375 -17.453125 16.191406 -17.671875 16.671875 -18.109375 C 17.160156 -18.554688 17.40625 -19.078125 17.40625 -19.671875 L 17.890625 -19.671875 L 17.890625 -13.796875 L 17.40625 -13.796875 C 17.40625 -14.359375 17.171875 -14.84375 16.703125 -15.25 C 16.234375 -15.65625 15.625 -15.859375 14.875 -15.859375 L 7.09375 -15.859375 L 7.09375 -2.953125 C 7.09375 -2.703125 7.125 -2.4375 7.1875 -2.15625 C 7.25 -1.875 7.347656 -1.609375 7.484375 -1.359375 C 7.628906 -1.109375 7.796875 -0.894531 7.984375 -0.71875 C 8.171875 -0.550781 8.390625 -0.46875 8.640625 -0.46875 Z M 8.640625 -0.46875 "/></g></g></g><g fill="#ffd700" fill-opacity="1"><g transform="translate(142.672981, 194.709979)"><g><path d="M 20.046875 -0.46875 L 20.28125 -0.46875 C 21.03125 -0.46875 21.40625 -0.8125 21.40625 -1.5 C 21.40625 -1.75 21.359375 -2.015625 21.265625 -2.296875 L 17.03125 -13.703125 L 8.828125 -13.703125 L 4.734375 -2.484375 C 4.640625 -2.234375 4.59375 -2 4.59375 -1.78125 C 4.59375 -1.375 4.703125 -1.050781 4.921875 -0.8125 C 5.140625 -0.582031 5.375 -0.46875 5.625 -0.46875 L 5.859375 -0.46875 L 5.859375 0 L 0.65625 0 L 0.65625 -0.46875 L 0.890625 -0.46875 C 1.296875 -0.46875 1.691406 -0.707031 2.078125 -1.1875 C 2.472656 -1.675781 2.796875 -2.25 3.046875 -2.90625 L 13.796875 -31.546875 L 24.3125 -3.1875 C 24.53125 -2.5625 24.832031 -1.953125 25.21875 -1.359375 C 25.613281 -0.765625 26.125 -0.46875 26.75 -0.46875 L 26.984375 -0.46875 L 26.984375 0 L 20.046875 0 Z M 9.296875 -15.296875 L 16.515625 -15.296875 L 12.90625 -25.109375 Z M 9.296875 -15.296875 "/></g></g></g><g fill="#ffd700" fill-opacity="1"><g transform="translate(171.542142, 194.709979)"><g><path d="M 2.296875 -30.984375 L 9.015625 -30.984375 L 9.015625 -30.515625 L 8.78125 -30.515625 C 8.5625 -30.515625 8.359375 -30.425781 8.171875 -30.25 C 7.984375 -30.082031 7.828125 -29.878906 7.703125 -29.640625 C 7.578125 -29.398438 7.472656 -29.128906 7.390625 -28.828125 C 7.316406 -28.535156 7.28125 -28.28125 7.28125 -28.0625 L 7.28125 -3.046875 C 7.28125 -2.796875 7.3125 -2.519531 7.375 -2.21875 C 7.4375 -1.925781 7.535156 -1.65625 7.671875 -1.40625 C 7.816406 -1.15625 7.972656 -0.9375 8.140625 -0.75 C 8.316406 -0.5625 8.53125 -0.46875 8.78125 -0.46875 L 9.015625 -0.46875 L 9.015625 0 L 2.296875 0 L 2.296875 -0.46875 L 2.53125 -0.46875 C 2.78125 -0.46875 3 -0.550781 3.1875 -0.71875 C 3.375 -0.894531 3.535156 -1.113281 3.671875 -1.375 C 3.816406 -1.644531 3.921875 -1.925781 3.984375 -2.21875 C 4.046875 -2.519531 4.078125 -2.796875 4.078125 -3.046875 L 4.078125 -28.0625 C 4.078125 -28.28125 4.046875 -28.53125 3.984375 -28.8125 C 3.921875 -29.09375 3.816406 -29.359375 3.671875 -29.609375 C 3.535156 -29.867188 3.375 -30.082031 3.1875 -30.25 C 3 -30.425781 2.78125 -30.515625 2.53125 -30.515625 L 2.296875 -30.515625 Z M 2.296875 -30.984375 "/></g></g></g><g fill="#ffd700" fill-opacity="1"><g transform="translate(184.122551, 194.709979)"><g><path d="M 8.5 -0.46875 L 8.734375 -0.46875 L 8.734375 0 L 2.109375 0 L 2.109375 -0.46875 L 2.34375 -0.46875 C 2.5625 -0.46875 2.765625 -0.5625 2.953125 -0.75 C 3.140625 -0.9375 3.300781 -1.15625 3.4375 -1.40625 C 3.582031 -1.65625 3.6875 -1.925781 3.75 -2.21875 C 3.8125 -2.519531 3.84375 -2.796875 3.84375 -3.046875 L 3.84375 -28.0625 C 3.84375 -28.28125 3.8125 -28.53125 3.75 -28.8125 C 3.6875 -29.09375 3.582031 -29.359375 3.4375 -29.609375 C 3.300781 -29.867188 3.140625 -30.082031 2.953125 -30.25 C 2.765625 -30.425781 2.5625 -30.515625 2.34375 -30.515625 L 2.109375 -30.515625 L 2.109375 -30.984375 L 10.28125 -30.984375 C 13.40625 -30.984375 15.820312 -30.367188 17.53125 -29.140625 C 19.238281 -27.921875 20.09375 -26.125 20.09375 -23.75 C 20.09375 -22.5625 19.894531 -21.519531 19.5 -20.625 C 19.113281 -19.738281 18.585938 -18.972656 17.921875 -18.328125 C 17.265625 -17.679688 16.488281 -17.160156 15.59375 -16.765625 C 14.707031 -16.378906 13.765625 -16.09375 12.765625 -15.90625 L 16.140625 -10.75 C 16.953125 -9.5 17.78125 -8.269531 18.625 -7.0625 C 19.476562 -5.851562 20.3125 -4.609375 21.125 -3.328125 C 21.34375 -3.015625 21.582031 -2.6875 21.84375 -2.34375 C 22.113281 -2 22.394531 -1.6875 22.6875 -1.40625 C 22.988281 -1.125 23.300781 -0.894531 23.625 -0.71875 C 23.957031 -0.550781 24.296875 -0.46875 24.640625 -0.46875 L 24.640625 0 L 22.625 0 C 21.375 0 20.347656 -0.300781 19.546875 -0.90625 C 18.753906 -1.519531 18.085938 -2.234375 17.546875 -3.046875 C 16.140625 -5.117188 14.738281 -7.21875 13.34375 -9.34375 C 11.957031 -11.46875 10.578125 -13.5625 9.203125 -15.625 C 8.859375 -15.65625 8.488281 -15.691406 8.09375 -15.734375 C 7.707031 -15.785156 7.34375 -15.84375 7 -15.90625 L 7 -3.046875 C 7 -2.796875 7.03125 -2.519531 7.09375 -2.21875 C 7.15625 -1.925781 7.253906 -1.65625 7.390625 -1.40625 C 7.535156 -1.15625 7.691406 -0.9375 7.859375 -0.75 C 8.035156 -0.5625 8.25 -0.46875 8.5 -0.46875 Z M 7 -29.390625 L 7 -17.453125 L 7.234375 -17.453125 C 7.484375 -17.421875 7.878906 -17.394531 8.421875 -17.375 C 8.972656 -17.363281 9.65625 -17.359375 10.46875 -17.359375 C 11.125 -17.359375 11.816406 -17.460938 12.546875 -17.671875 C 13.285156 -17.878906 13.972656 -18.222656 14.609375 -18.703125 C 15.253906 -19.191406 15.785156 -19.828125 16.203125 -20.609375 C 16.628906 -21.390625 16.84375 -22.375 16.84375 -23.5625 C 16.84375 -24.75 16.613281 -25.71875 16.15625 -26.46875 C 15.707031 -27.21875 15.082031 -27.8125 14.28125 -28.25 C 13.488281 -28.6875 12.53125 -28.984375 11.40625 -29.140625 C 10.28125 -29.304688 9.046875 -29.390625 7.703125 -29.390625 Z M 7 -29.390625 "/></g></g></g><g fill="#ffd700" fill-opacity="1"><g transform="translate(210.644628, 194.709979)"><g><path d="M 0.140625 -30.984375 L 6.625 -30.984375 L 6.625 -30.515625 C 6.40625 -30.484375 6.195312 -30.390625 6 -30.234375 C 5.8125 -30.078125 5.71875 -29.84375 5.71875 -29.53125 C 5.71875 -29.363281 5.765625 -29.1875 5.859375 -29 L 12.90625 -16.65625 L 19.671875 -28.34375 C 19.796875 -28.59375 19.878906 -28.78125 19.921875 -28.90625 C 19.972656 -29.03125 20 -29.191406 20 -29.390625 C 19.9375 -29.890625 19.753906 -30.203125 19.453125 -30.328125 C 19.160156 -30.453125 18.984375 -30.515625 18.921875 -30.515625 L 18.921875 -30.984375 L 23.9375 -30.984375 L 23.9375 -30.515625 C 23.46875 -30.515625 22.988281 -30.222656 22.5 -29.640625 C 22.019531 -29.054688 21.609375 -28.46875 21.265625 -27.875 L 13.9375 -15.203125 L 13.9375 -3.046875 C 13.9375 -2.796875 13.972656 -2.53125 14.046875 -2.25 C 14.128906 -1.96875 14.234375 -1.691406 14.359375 -1.421875 C 14.484375 -1.160156 14.640625 -0.9375 14.828125 -0.75 C 15.015625 -0.5625 15.234375 -0.46875 15.484375 -0.46875 L 15.71875 -0.46875 L 15.71875 0 L 9.015625 0 L 9.015625 -0.46875 L 9.25 -0.46875 C 9.5 -0.46875 9.71875 -0.550781 9.90625 -0.71875 C 10.09375 -0.894531 10.253906 -1.113281 10.390625 -1.375 C 10.535156 -1.644531 10.640625 -1.925781 10.703125 -2.21875 C 10.765625 -2.519531 10.796875 -2.796875 10.796875 -3.046875 L 10.796875 -14.78125 L 3.234375 -27.734375 C 3.078125 -27.984375 2.890625 -28.265625 2.671875 -28.578125 C 2.453125 -28.890625 2.21875 -29.1875 1.96875 -29.46875 C 1.71875 -29.757812 1.453125 -30.003906 1.171875 -30.203125 C 0.890625 -30.410156 0.625 -30.515625 0.375 -30.515625 L 0.140625 -30.515625 Z M 0.140625 -30.984375 "/></g></g></g><g fill="#ffd700" fill-opacity="1"><g transform="translate(236.650352, 194.709979)"><g><path d="M 13.984375 -0.46875 L 14.21875 -0.46875 L 14.21875 0 L 7.5625 0 L 7.5625 -0.46875 L 7.796875 -0.46875 C 8.046875 -0.46875 8.265625 -0.5625 8.453125 -0.75 C 8.640625 -0.9375 8.800781 -1.15625 8.9375 -1.40625 C 9.082031 -1.65625 9.1875 -1.925781 9.25 -2.21875 C 9.3125 -2.519531 9.34375 -2.796875 9.34375 -3.046875 L 9.34375 -29.234375 L 3.890625 -29.234375 C 3.390625 -29.234375 2.953125 -29.125 2.578125 -28.90625 C 2.203125 -28.6875 1.890625 -28.410156 1.640625 -28.078125 C 1.390625 -27.753906 1.203125 -27.394531 1.078125 -27 C 0.953125 -26.613281 0.890625 -26.234375 0.890625 -25.859375 L 0.421875 -25.859375 L 0.421875 -30.984375 L 21.5 -30.984375 L 21.5 -25.859375 L 21.03125 -25.859375 C 21.03125 -26.234375 20.96875 -26.613281 20.84375 -27 C 20.71875 -27.394531 20.53125 -27.753906 20.28125 -28.078125 C 20.03125 -28.410156 19.71875 -28.6875 19.34375 -28.90625 C 18.96875 -29.125 18.53125 -29.234375 18.03125 -29.234375 L 12.484375 -29.234375 L 12.484375 -3.046875 C 12.484375 -2.796875 12.515625 -2.519531 12.578125 -2.21875 C 12.640625 -1.925781 12.738281 -1.65625 12.875 -1.40625 C 13.019531 -1.15625 13.175781 -0.9375 13.34375 -0.75 C 13.519531 -0.5625 13.734375 -0.46875 13.984375 -0.46875 Z M 13.984375 -0.46875 "/></g></g></g><g fill="#ffd700" fill-opacity="1"><g transform="translate(259.792632, 194.709979)"><g><path d="M 20.046875 -0.46875 L 20.28125 -0.46875 C 21.03125 -0.46875 21.40625 -0.8125 21.40625 -1.5 C 21.40625 -1.75 21.359375 -2.015625 21.265625 -2.296875 L 17.03125 -13.703125 L 8.828125 -13.703125 L 4.734375 -2.484375 C 4.640625 -2.234375 4.59375 -2 4.59375 -1.78125 C 4.59375 -1.375 4.703125 -1.050781 4.921875 -0.8125 C 5.140625 -0.582031 5.375 -0.46875 5.625 -0.46875 L 5.859375 -0.46875 L 5.859375 0 L 0.65625 0 L 0.65625 -0.46875 L 0.890625 -0.46875 C 1.296875 -0.46875 1.691406 -0.707031 2.078125 -1.1875 C 2.472656 -1.675781 2.796875 -2.25 3.046875 -2.90625 L 13.796875 -31.546875 L 24.3125 -3.1875 C 24.53125 -2.5625 24.832031 -1.953125 25.21875 -1.359375 C 25.613281 -0.765625 26.125 -0.46875 26.75 -0.46875 L 26.984375 -0.46875 L 26.984375 0 L 20.046875 0 Z M 9.296875 -15.296875 L 16.515625 -15.296875 L 12.90625 -25.109375 Z M 9.296875 -15.296875 "/></g></g></g><g fill="#ffd700" fill-opacity="1"><g transform="translate(288.661787, 194.709979)"><g><path d="M 2.109375 -0.46875 L 2.34375 -0.46875 C 2.59375 -0.46875 2.8125 -0.550781 3 -0.71875 C 3.1875 -0.894531 3.347656 -1.109375 3.484375 -1.359375 C 3.628906 -1.609375 3.738281 -1.875 3.8125 -2.15625 C 3.894531 -2.4375 3.9375 -2.703125 3.9375 -2.953125 L 3.9375 -28.0625 C 3.9375 -28.28125 3.894531 -28.53125 3.8125 -28.8125 C 3.738281 -29.09375 3.628906 -29.359375 3.484375 -29.609375 C 3.347656 -29.867188 3.1875 -30.082031 3 -30.25 C 2.8125 -30.425781 2.59375 -30.515625 2.34375 -30.515625 L 2.109375 -30.515625 L 2.109375 -30.984375 L 8.875 -30.984375 L 8.875 -30.515625 L 8.640625 -30.515625 C 8.390625 -30.515625 8.171875 -30.425781 7.984375 -30.25 C 7.796875 -30.082031 7.640625 -29.867188 7.515625 -29.609375 C 7.390625 -29.359375 7.285156 -29.09375 7.203125 -28.8125 C 7.128906 -28.53125 7.09375 -28.28125 7.09375 -28.0625 L 7.09375 -1.734375 L 17.359375 -1.734375 C 17.960938 -1.734375 18.484375 -1.875 18.921875 -2.15625 C 19.359375 -2.4375 19.722656 -2.785156 20.015625 -3.203125 C 20.316406 -3.628906 20.535156 -4.082031 20.671875 -4.5625 C 20.816406 -5.050781 20.890625 -5.503906 20.890625 -5.921875 L 21.359375 -5.921875 L 21.359375 0 L 2.109375 0 Z M 2.109375 -0.46875 "/></g></g></g><g fill="#ffd700" fill-opacity="1"><g transform="translate(311.663239, 194.709979)"><g><path d="M 2.109375 -0.46875 L 2.34375 -0.46875 C 2.59375 -0.46875 2.8125 -0.550781 3 -0.71875 C 3.1875 -0.894531 3.347656 -1.109375 3.484375 -1.359375 C 3.628906 -1.609375 3.738281 -1.875 3.8125 -2.15625 C 3.894531 -2.4375 3.9375 -2.703125 3.9375 -2.953125 L 3.9375 -28.0625 C 3.9375 -28.28125 3.894531 -28.53125 3.8125 -28.8125 C 3.738281 -29.09375 3.628906 -29.359375 3.484375 -29.609375 C 3.347656 -29.867188 3.1875 -30.082031 3 -30.25 C 2.8125 -30.425781 2.59375 -30.515625 2.34375 -30.515625 L 2.109375 -30.515625 L 2.109375 -30.984375 L 20.1875 -30.984375 L 20.1875 -26.609375 L 19.71875 -26.609375 C 19.65625 -27.328125 19.375 -27.957031 18.875 -28.5 C 18.375 -29.050781 17.585938 -29.328125 16.515625 -29.328125 L 7.09375 -29.328125 L 7.09375 -17.453125 L 14.875 -17.453125 C 15.59375 -17.453125 16.191406 -17.671875 16.671875 -18.109375 C 17.160156 -18.554688 17.40625 -19.078125 17.40625 -19.671875 L 17.890625 -19.671875 L 17.890625 -13.796875 L 17.40625 -13.796875 C 17.40625 -14.359375 17.171875 -14.84375 16.703125 -15.25 C 16.234375 -15.65625 15.625 -15.859375 14.875 -15.859375 L 7.09375 -15.859375 L 7.09375 -1.640625 L 17.359375 -1.640625 C 17.960938 -1.640625 18.484375 -1.78125 18.921875 -2.0625 C 19.359375 -2.34375 19.722656 -2.675781 20.015625 -3.0625 C 20.316406 -3.457031 20.535156 -3.878906 20.671875 -4.328125 C 20.816406 -4.785156 20.890625 -5.171875 20.890625 -5.484375 L 21.359375 -5.484375 L 21.359375 0 L 2.109375 0 Z M 2.109375 -0.46875 "/></g></g></g><g fill="#ffd700" fill-opacity="1"><g transform="translate(187.155366, 212.769495)"><g><path d="M 0.953125 -6.84375 L 2.859375 -6.84375 C 3.671875 -6.84375 4.296875 -6.6875 4.734375 -6.375 C 5.179688 -6.070312 5.40625 -5.566406 5.40625 -4.859375 C 5.40625 -4.171875 5.179688 -3.648438 4.734375 -3.296875 C 4.285156 -2.941406 3.671875 -2.765625 2.890625 -2.765625 L 1.734375 -2.765625 L 1.734375 0 L 0.953125 0 Z M 2.78125 -3.40625 C 3.414062 -3.40625 3.878906 -3.519531 4.171875 -3.75 C 4.472656 -3.988281 4.625 -4.359375 4.625 -4.859375 C 4.625 -5.359375 4.46875 -5.707031 4.15625 -5.90625 C 3.851562 -6.113281 3.378906 -6.21875 2.734375 -6.21875 L 1.734375 -6.21875 L 1.734375 -3.40625 Z M 2.78125 -3.40625 "/></g></g></g><g fill="#ffd700" fill-opacity="1"><g transform="translate(195.623882, 212.769495)"><g><path d="M 0.953125 -6.84375 L 4.84375 -6.84375 L 4.84375 -6.1875 L 1.734375 -6.1875 L 1.734375 -3.921875 L 4.359375 -3.921875 L 4.359375 -3.28125 L 1.734375 -3.28125 L 1.734375 -0.65625 L 4.953125 -0.65625 L 4.953125 0 L 0.953125 0 Z M 0.953125 -6.84375 "/></g></g></g><g fill="#ffd700" fill-opacity="1"><g transform="translate(203.696128, 212.769495)"><g><path d="M 4.71875 0 L 3.015625 -2.953125 L 1.734375 -2.953125 L 1.734375 0 L 0.953125 0 L 0.953125 -6.84375 L 3.046875 -6.84375 C 4.617188 -6.84375 5.40625 -6.210938 5.40625 -4.953125 C 5.40625 -4.429688 5.265625 -4.003906 4.984375 -3.671875 C 4.703125 -3.347656 4.3125 -3.132812 3.8125 -3.03125 L 5.59375 0 Z M 1.734375 -3.578125 L 2.921875 -3.578125 C 3.484375 -3.578125 3.910156 -3.691406 4.203125 -3.921875 C 4.492188 -4.148438 4.640625 -4.492188 4.640625 -4.953125 C 4.640625 -5.398438 4.492188 -5.722656 4.203125 -5.921875 C 3.921875 -6.117188 3.492188 -6.21875 2.921875 -6.21875 L 1.734375 -6.21875 Z M 1.734375 -3.578125 "/></g></g></g><g fill="#ffd700" fill-opacity="1"><g transform="translate(212.175073, 212.769495)"><g><path d="M 0.953125 -6.84375 L 1.734375 -6.84375 L 1.734375 0 L 0.953125 0 Z M 0.953125 -6.84375 "/></g></g></g><g fill="#ffd700" fill-opacity="1"><g transform="translate(217.46301, 212.769495)"><g/></g></g><g fill="#ffd700" fill-opacity="1"><g transform="translate(222.156545, 212.769495)"><g><path d="M 0.953125 -6.84375 L 1.90625 -6.84375 L 3.25 -3.09375 L 3.75 -1.640625 L 3.796875 -1.640625 C 3.835938 -1.773438 3.898438 -1.972656 3.984375 -2.234375 C 4.097656 -2.566406 4.195312 -2.851562 4.28125 -3.09375 L 5.609375 -6.84375 L 6.5625 -6.84375 L 6.5625 0 L 5.84375 0 L 5.84375 -3.953125 C 5.84375 -4.367188 5.875 -5.03125 5.9375 -5.9375 L 5.90625 -5.9375 L 5.359375 -4.390625 L 4.015625 -0.703125 L 3.484375 -0.703125 L 2.140625 -4.390625 L 1.59375 -5.9375 L 1.546875 -5.9375 L 1.578125 -5.6875 C 1.628906 -4.945312 1.65625 -4.367188 1.65625 -3.953125 L 1.65625 0 L 0.953125 0 Z M 0.953125 -6.84375 "/></g></g></g><g fill="#ffd700" fill-opacity="1"><g transform="translate(232.283132, 212.769495)"><g><path d="M 4.078125 -2.15625 L 1.515625 -2.15625 L 0.828125 0 L 0.046875 0 L 2.390625 -6.84375 L 3.234375 -6.84375 L 5.578125 0 L 4.765625 0 Z M 3.875 -2.765625 L 3.515625 -3.875 C 3.242188 -4.75 3.007812 -5.523438 2.8125 -6.203125 L 2.765625 -6.203125 C 2.535156 -5.359375 2.304688 -4.582031 2.078125 -3.875 L 1.71875 -2.765625 Z M 3.875 -2.765625 "/></g></g></g><g fill="#ffd700" fill-opacity="1"><g transform="translate(240.511801, 212.769495)"><g><path d="M 2.828125 0.125 C 2.347656 0.125 1.90625 0.0351562 1.5 -0.140625 C 1.09375 -0.328125 0.742188 -0.578125 0.453125 -0.890625 L 0.921875 -1.421875 C 1.171875 -1.148438 1.460938 -0.9375 1.796875 -0.78125 C 2.128906 -0.625 2.472656 -0.546875 2.828125 -0.546875 C 3.296875 -0.546875 3.660156 -0.65625 3.921875 -0.875 C 4.191406 -1.09375 4.328125 -1.378906 4.328125 -1.734375 C 4.328125 -1.960938 4.28125 -2.15625 4.1875 -2.3125 C 4.09375 -2.46875 3.96875 -2.585938 3.8125 -2.671875 C 3.65625 -2.765625 3.441406 -2.875 3.171875 -3 L 2.171875 -3.4375 C 1.773438 -3.613281 1.445312 -3.835938 1.1875 -4.109375 C 0.925781 -4.378906 0.796875 -4.738281 0.796875 -5.1875 C 0.796875 -5.53125 0.882812 -5.835938 1.0625 -6.109375 C 1.238281 -6.378906 1.488281 -6.585938 1.8125 -6.734375 C 2.132812 -6.890625 2.492188 -6.96875 2.890625 -6.96875 C 3.285156 -6.96875 3.65625 -6.890625 4 -6.734375 C 4.34375 -6.585938 4.640625 -6.382812 4.890625 -6.125 L 4.46875 -5.640625 C 4.019531 -6.078125 3.492188 -6.296875 2.890625 -6.296875 C 2.492188 -6.296875 2.171875 -6.195312 1.921875 -6 C 1.679688 -5.8125 1.5625 -5.554688 1.5625 -5.234375 C 1.5625 -5.015625 1.613281 -4.832031 1.71875 -4.6875 C 1.832031 -4.539062 1.960938 -4.425781 2.109375 -4.34375 C 2.253906 -4.257812 2.453125 -4.160156 2.703125 -4.046875 L 3.703125 -3.609375 C 4.148438 -3.421875 4.5 -3.1875 4.75 -2.90625 C 5 -2.632812 5.125 -2.265625 5.125 -1.796875 C 5.125 -1.429688 5.023438 -1.101562 4.828125 -0.8125 C 4.640625 -0.519531 4.375 -0.289062 4.03125 -0.125 C 3.6875 0.0390625 3.285156 0.125 2.828125 0.125 Z M 2.828125 0.125 "/></g></g></g><g fill="#ffd700" fill-opacity="1"><g transform="translate(248.646616, 212.769495)"><g><path d="M 4.078125 -2.15625 L 1.515625 -2.15625 L 0.828125 0 L 0.046875 0 L 2.390625 -6.84375 L 3.234375 -6.84375 L 5.578125 0 L 4.765625 0 Z M 3.875 -2.765625 L 3.515625 -3.875 C 3.242188 -4.75 3.007812 -5.523438 2.8125 -6.203125 L 2.765625 -6.203125 C 2.535156 -5.359375 2.304688 -4.582031 2.078125 -3.875 L 1.71875 -2.765625 Z M 3.875 -2.765625 "/></g></g></g><g fill="#ffd700" fill-opacity="1"><g transform="translate(256.875285, 212.769495)"><g><path d="M 0.953125 -6.84375 L 1.734375 -6.84375 L 1.734375 -0.65625 L 4.75 -0.65625 L 4.75 0 L 0.953125 0 Z M 0.953125 -6.84375 "/></g></g></g><g fill="#ffd700" fill-opacity="1"><g transform="translate(264.499121, 212.769495)"><g><path d="M 0.953125 -6.84375 L 1.734375 -6.84375 L 1.734375 0 L 0.953125 0 Z M 0.953125 -6.84375 "/></g></g></g><g clip-path="url(#e39a6bb6e5)"><path fill="#ffd700" d="M 76.019531 206.839844 C 80.867188 203.003906 79.03125 199.546875 80.179688 196.671875 C 80.179688 196.671875 79.035156 197.480469 78.988281 200.3125 C 77.773438 192.5 86.960938 192.113281 91.335938 184.585938 C 89.710938 193.652344 82.800781 191.28125 80.742188 195.953125 C 80.742188 195.953125 81.898438 194.824219 83.46875 194.429688 C 78.414062 197.542969 83.050781 202.964844 76.019531 206.839844 Z M 90.667969 189.472656 C 93.535156 188.019531 99.132812 184.234375 100.972656 181.421875 C 102.808594 178.609375 102.644531 176.441406 102.644531 176.441406 C 102.644531 176.441406 105.4375 172.441406 105.160156 169.460938 C 105.160156 169.460938 102.015625 177.457031 91.976562 186.296875 C 91.976562 186.296875 91.671875 187.078125 91.460938 187.480469 C 91.460938 187.480469 97.636719 182.800781 100.09375 180.253906 C 100.09375 180.253906 96.375 185.332031 90.667969 189.472656 Z M 82.132812 197.546875 C 83.910156 194.070312 87.71875 192.878906 90.710938 190.808594 C 90.710938 190.808594 88.554688 195.570312 82.121094 198.300781 C 82.121094 198.300781 86.421875 195.222656 87.578125 193.648438 C 87.578125 193.648438 85.253906 194.539062 82.132812 197.546875 Z M 81.910156 199.871094 C 84.160156 197.785156 88.234375 195.917969 89.945312 194.945312 C 89.945312 194.945312 89.375 198.773438 81.773438 200.75 C 81.773438 200.75 86.046875 198.621094 87.496094 197.128906 C 87.496094 197.128906 84.851562 198.152344 81.910156 199.871094 Z M 81.464844 202.28125 C 81.464844 202.28125 84.75 199.886719 89.039062 199.050781 C 89.039062 199.050781 87.285156 202.003906 81.105469 203.0625 C 81.105469 203.0625 85.042969 201.613281 86.699219 200.359375 C 86.699219 200.359375 82.898438 201.628906 81.464844 202.28125 Z M 89.683594 193.796875 C 93.273438 192.386719 99.609375 189.203125 101.613281 187.050781 C 103.617188 184.894531 103.753906 183.292969 103.753906 183.292969 C 103.753906 183.292969 107.003906 180.332031 107.496094 177.382812 C 107.496094 177.382812 103.257812 183.035156 91.753906 190.265625 C 91.753906 190.265625 91.367188 191.511719 91.085938 191.871094 C 91.085938 191.871094 96.925781 188.660156 101.339844 185.277344 C 101.339844 185.277344 98.019531 189.03125 89.683594 193.796875 Z M 88.597656 197.742188 C 92.414062 196.539062 99.914062 195.285156 101.847656 190.601562 C 101.847656 190.601562 105.761719 188.445312 106.492188 185.878906 C 106.492188 185.878906 103.089844 189.199219 90.878906 194.578125 C 90.878906 194.578125 90.421875 195.746094 90.097656 196.050781 C 90.097656 196.050781 96.039062 193.703125 100.203125 191.578125 C 100.203125 191.578125 96.640625 194.640625 88.597656 197.742188 Z M 88.015625 200.796875 C 91.457031 200.230469 98.125 200.085938 100.375 196.304688 C 100.375 196.304688 104.371094 194.695312 105.140625 192.359375 C 105.140625 192.359375 101.847656 195.164062 90.429688 198.269531 C 90.429688 198.269531 89.835938 199.304688 89.519531 199.527344 C 89.519531 199.527344 93.625 198.554688 97.476562 197.242188 C 97.476562 197.242188 95.050781 198.957031 88.015625 200.796875 Z M 80.863281 204.101562 C 80.863281 204.101562 84.34375 202.222656 88.046875 201.949219 C 88.046875 201.949219 86.582031 204.316406 80.054688 204.832031 C 80.054688 204.832031 84.464844 203.8125 85.789062 202.851562 C 85.789062 202.851562 83.476562 203.289062 80.863281 204.101562 Z M 79.128906 205.660156 C 79.128906 205.660156 82.359375 204.628906 85.523438 204.980469 C 85.523438 204.980469 83.917969 206.746094 78.328125 206.148438 C 78.328125 206.148438 82.261719 205.824219 83.402344 205.410156 C 83.402344 205.410156 81.574219 205.332031 79.128906 205.660156 Z M 77.226562 206.875 C 77.226562 206.875 80.109375 206.335938 82.832031 207.421875 C 82.832031 207.421875 80.972656 208.914062 76.453125 207.152344 C 76.453125 207.152344 79.386719 207.585938 81.113281 207.449219 C 81.113281 207.449219 79.601562 206.960938 77.226562 206.875 Z M 76.0625 208.167969 C 76.0625 208.167969 77.765625 209.746094 80.457031 209.742188 C 80.457031 209.742188 79.519531 208.273438 75.628906 207.464844 C 75.628906 207.464844 78.199219 208.5625 79.078125 209.203125 C 79.078125 209.203125 77.761719 208.902344 76.0625 208.167969 Z M 75.589844 209.183594 C 75.589844 209.183594 76.550781 210.929688 78.945312 211.371094 C 78.945312 211.371094 78.316406 209.8125 75.117188 208.199219 C 75.117188 208.199219 76.953125 209.605469 77.71875 210.542969 C 77.71875 210.542969 76.824219 210.160156 75.589844 209.183594 Z M 74.636719 209.457031 C 74.636719 209.457031 74.976562 211.050781 76.632812 211.976562 C 76.632812 211.976562 76.828125 211.023438 74.527344 208.527344 C 74.527344 208.527344 75.464844 210.058594 75.808594 210.894531 C 75.808594 210.894531 75.398438 210.578125 74.636719 209.457031 Z M 88.796875 201.929688 C 94.117188 200.824219 94.71875 200.425781 98.25 200.546875 C 98.25 200.546875 96.175781 203.507812 85.621094 204.015625 C 85.621094 204.015625 91.4375 202.875 94.105469 201.855469 C 94.105469 201.855469 90.789062 202.277344 88.144531 202.816406 C 88.144531 202.816406 88.578125 202.3125 88.796875 201.929688 Z M 86.421875 204.917969 C 91.792969 204.113281 92.332031 204.003906 95.332031 204.097656 C 95.332031 204.097656 93.277344 207.054688 83.09375 206.480469 C 83.09375 206.480469 88.777344 206.160156 91.472656 205.179688 C 91.472656 205.179688 88.179688 205.546875 85.433594 205.757812 C 85.433594 205.757812 86.183594 205.289062 86.421875 204.917969 Z M 83.796875 207.351562 C 87.125 207.453125 90.027344 206.960938 92.492188 207.476562 C 92.492188 207.476562 90.363281 209.964844 80.59375 208.378906 C 80.59375 208.378906 86.054688 208.535156 88.40625 208.085938 C 88.40625 208.085938 84.535156 207.9375 83.269531 207.824219 C 83.449219 207.707031 83.664062 207.503906 83.796875 207.351562 Z M 80.621094 209.070312 C 80.621094 209.070312 88.730469 209.539062 90.121094 210.625 C 90.121094 210.625 85.21875 211.828125 81.335938 209.859375 C 81.335938 209.859375 84.421875 210.367188 85.988281 210.359375 C 85.988281 210.359375 83.050781 209.875 80.621094 209.070312 Z M 78.316406 209.8125 C 78.316406 209.8125 84.316406 211.359375 86.113281 212.964844 C 86.113281 212.964844 82.160156 213.417969 78.914062 210.730469 C 78.914062 210.730469 81.746094 211.855469 82.945312 212.117188 C 82.945312 212.117188 80.304688 210.957031 78.316406 209.8125 Z M 76.761719 211.015625 C 77.597656 211.550781 80.902344 212.355469 82.566406 214.273438 C 82.566406 214.273438 79.5625 214.472656 77.273438 211.835938 C 77.273438 211.835938 78.875 212.8125 80.222656 213.300781 C 80.222656 213.300781 78.128906 212.164062 76.761719 211.015625 Z M 91.644531 210.832031 C 91.644531 210.832031 90.5 209.699219 88.589844 209.40625 C 88.589844 209.40625 92.03125 209.566406 94.589844 207.355469 C 94.589844 207.355469 93.21875 206.644531 91.339844 206.6875 C 91.339844 206.6875 94.578125 206.457031 97.488281 203.796875 C 97.488281 203.796875 96.09375 203.183594 94.230469 203.40625 C 94.230469 203.40625 97.738281 202.816406 100.148438 200.03125 C 100.148438 200.03125 98.058594 199.722656 96.988281 199.917969 C 96.988281 199.917969 99.699219 199.40625 101.0625 196.984375 C 101.0625 196.984375 106.695312 195.007812 107.277344 189.773438 C 107.277344 189.773438 104.128906 192.359375 101.082031 193.625 C 101.082031 193.625 102.15625 192.601562 102.683594 191.273438 C 102.683594 191.273438 108.515625 188.042969 108.335938 182.875 C 108.335938 182.875 105.203125 185.808594 102.988281 187.15625 C 102.988281 187.15625 104.421875 185.75 104.671875 183.648438 C 104.671875 183.648438 109.65625 179.703125 108.988281 173.828125 C 108.988281 173.828125 105.714844 178.324219 102.542969 181.082031 C 102.542969 181.082031 103.753906 179.035156 103.738281 176.640625 C 103.738281 176.640625 108.375 170.441406 105.898438 165.207031 C 105.898438 165.207031 102.320312 175.46875 92.238281 184.660156 C 92.238281 184.660156 92.433594 182.640625 92.128906 181.566406 C 92.128906 181.566406 90.636719 184.5625 87.601562 187.347656 C 84.566406 190.128906 79.808594 192.339844 78.582031 195.597656 C 76.734375 200.515625 80.320312 203.015625 73.882812 207.753906 C 73.582031 210.121094 75.476562 212.074219 77.160156 212.972656 C 77.183594 212.8125 77.183594 212.636719 77.171875 212.449219 C 78.863281 214.167969 80.90625 215.101562 83.628906 214.789062 C 83.3125 214.089844 82.296875 213.257812 81.59375 212.792969 C 83.433594 213.558594 85.707031 213.699219 87.570312 213.390625 C 86.882812 212.550781 85.652344 211.933594 84.691406 211.449219 C 86.042969 211.664062 89.316406 211.929688 91.644531 210.832031 Z M 91.644531 210.832031 " fill-opacity="1" fill-rule="evenodd"/></g><g clip-path="url(#1d2b11c9f0)"><path fill="#ffd700" d="M 71.136719 206.839844 C 66.289062 203.003906 68.128906 199.546875 66.976562 196.671875 C 66.976562 196.671875 68.121094 197.480469 68.167969 200.3125 C 69.382812 192.5 60.195312 192.113281 55.820312 184.585938 C 57.445312 193.652344 64.359375 191.28125 66.414062 195.953125 C 66.414062 195.953125 65.261719 194.824219 63.6875 194.429688 C 68.742188 197.542969 64.105469 202.964844 71.136719 206.839844 Z M 56.488281 189.472656 C 53.621094 188.019531 48.023438 184.234375 46.183594 181.421875 C 44.347656 178.609375 44.515625 176.441406 44.515625 176.441406 C 44.515625 176.441406 41.71875 172.441406 41.996094 169.460938 C 41.996094 169.460938 45.140625 177.457031 55.179688 186.296875 C 55.179688 186.296875 55.484375 187.078125 55.695312 187.480469 C 55.695312 187.480469 49.519531 182.800781 47.0625 180.253906 C 47.0625 180.253906 50.78125 185.332031 56.488281 189.472656 Z M 65.023438 197.546875 C 63.246094 194.070312 59.4375 192.878906 56.445312 190.808594 C 56.445312 190.808594 58.605469 195.570312 65.035156 198.300781 C 65.035156 198.300781 60.734375 195.222656 59.578125 193.648438 C 59.578125 193.648438 61.90625 194.539062 65.023438 197.546875 Z M 65.246094 199.871094 C 62.996094 197.785156 58.921875 195.917969 57.210938 194.945312 C 57.210938 194.945312 57.78125 198.773438 65.386719 200.75 C 65.386719 200.75 61.109375 198.621094 59.664062 197.128906 C 59.664062 197.128906 62.308594 198.152344 65.246094 199.871094 Z M 65.691406 202.28125 C 65.691406 202.28125 62.40625 199.886719 58.117188 199.050781 C 58.117188 199.050781 59.871094 202.003906 66.054688 203.0625 C 66.054688 203.0625 62.113281 201.613281 60.457031 200.359375 C 60.457031 200.359375 64.257812 201.628906 65.691406 202.28125 Z M 57.472656 193.796875 C 53.886719 192.386719 47.546875 189.203125 45.542969 187.050781 C 43.539062 184.894531 43.402344 183.292969 43.402344 183.292969 C 43.402344 183.292969 40.152344 180.332031 39.660156 177.382812 C 39.660156 177.382812 43.902344 183.035156 55.402344 190.265625 C 55.402344 190.265625 55.789062 191.511719 56.070312 191.871094 C 56.070312 191.871094 50.230469 188.660156 45.820312 185.277344 C 45.820312 185.277344 49.136719 189.03125 57.472656 193.796875 Z M 58.558594 197.742188 C 54.742188 196.539062 47.242188 195.285156 45.308594 190.601562 C 45.308594 190.601562 41.394531 188.445312 40.664062 185.878906 C 40.664062 185.878906 44.066406 189.199219 56.277344 194.578125 C 56.277344 194.578125 56.738281 195.746094 57.058594 196.050781 C 57.058594 196.050781 51.117188 193.703125 46.957031 191.578125 C 46.957031 191.578125 50.515625 194.640625 58.558594 197.742188 Z M 59.140625 200.796875 C 55.703125 200.230469 49.03125 200.089844 46.78125 196.304688 C 46.78125 196.304688 42.785156 194.695312 42.019531 192.359375 C 42.019531 192.359375 45.308594 195.164062 56.726562 198.269531 C 56.726562 198.269531 57.320312 199.304688 57.636719 199.527344 C 57.636719 199.527344 53.53125 198.554688 49.679688 197.242188 C 49.679688 197.242188 52.105469 198.957031 59.140625 200.796875 Z M 66.292969 204.101562 C 66.292969 204.101562 62.8125 202.222656 59.113281 201.949219 C 59.113281 201.949219 60.574219 204.316406 67.105469 204.832031 C 67.105469 204.832031 62.691406 203.8125 61.367188 202.851562 C 61.367188 202.851562 63.683594 203.289062 66.292969 204.101562 Z M 68.027344 205.660156 C 68.027344 205.660156 64.796875 204.628906 61.632812 204.980469 C 61.632812 204.980469 63.242188 206.746094 68.828125 206.148438 C 68.828125 206.148438 64.894531 205.824219 63.757812 205.410156 C 63.757812 205.410156 65.582031 205.332031 68.027344 205.660156 Z M 69.933594 206.875 C 69.933594 206.875 67.046875 206.335938 64.324219 207.421875 C 64.324219 207.421875 66.183594 208.914062 70.703125 207.152344 C 70.703125 207.152344 67.769531 207.585938 66.042969 207.449219 C 66.042969 207.449219 67.554688 206.960938 69.933594 206.875 Z M 71.09375 208.167969 C 71.09375 208.167969 69.390625 209.746094 66.703125 209.742188 C 66.703125 209.742188 67.636719 208.273438 71.527344 207.464844 C 71.527344 207.464844 68.957031 208.5625 68.078125 209.203125 C 68.078125 209.203125 69.394531 208.902344 71.09375 208.167969 Z M 71.566406 209.183594 C 71.566406 209.183594 70.609375 210.929688 68.210938 211.371094 C 68.210938 211.371094 68.839844 209.8125 72.039062 208.199219 C 72.039062 208.199219 70.203125 209.605469 69.4375 210.542969 C 69.4375 210.542969 70.332031 210.160156 71.566406 209.183594 Z M 72.519531 209.457031 C 72.519531 209.457031 72.183594 211.050781 70.523438 211.976562 C 70.523438 211.976562 70.328125 211.023438 72.628906 208.527344 C 72.628906 208.527344 71.691406 210.058594 71.347656 210.894531 C 71.347656 210.894531 71.757812 210.578125 72.519531 209.457031 Z M 58.359375 201.929688 C 53.042969 200.824219 52.4375 200.425781 48.910156 200.546875 C 48.910156 200.546875 50.980469 203.507812 61.535156 204.015625 C 61.535156 204.015625 55.722656 202.875 53.050781 201.855469 C 53.050781 201.855469 56.371094 202.277344 59.011719 202.816406 C 59.011719 202.816406 58.578125 202.3125 58.359375 201.929688 Z M 60.734375 204.917969 C 55.363281 204.113281 54.824219 204.003906 51.824219 204.097656 C 51.824219 204.097656 53.882812 207.054688 64.0625 206.480469 C 64.0625 206.480469 58.378906 206.160156 55.683594 205.179688 C 55.683594 205.179688 58.976562 205.546875 61.722656 205.757812 C 61.722656 205.757812 60.976562 205.289062 60.734375 204.917969 Z M 63.359375 207.351562 C 60.03125 207.453125 57.128906 206.960938 54.664062 207.476562 C 54.664062 207.476562 56.792969 209.964844 66.5625 208.378906 C 66.5625 208.378906 61.105469 208.535156 58.75 208.085938 C 58.75 208.085938 62.621094 207.9375 63.890625 207.824219 C 63.710938 207.707031 63.492188 207.503906 63.359375 207.351562 Z M 66.535156 209.070312 C 66.535156 209.070312 58.425781 209.539062 57.035156 210.625 C 57.035156 210.625 61.9375 211.828125 65.820312 209.859375 C 65.820312 209.859375 62.738281 210.367188 61.171875 210.359375 C 61.171875 210.359375 64.105469 209.875 66.535156 209.070312 Z M 68.839844 209.8125 C 68.839844 209.8125 62.839844 211.359375 61.046875 212.964844 C 61.046875 212.964844 64.996094 213.417969 68.242188 210.730469 C 68.242188 210.730469 65.414062 211.855469 64.214844 212.117188 C 64.214844 212.117188 66.851562 210.957031 68.839844 209.8125 Z M 70.394531 211.015625 C 69.558594 211.550781 66.257812 212.355469 64.589844 214.273438 C 64.589844 214.273438 67.59375 214.472656 69.882812 211.835938 C 69.882812 211.835938 68.28125 212.8125 66.933594 213.300781 C 66.933594 213.300781 69.027344 212.164062 70.394531 211.015625 Z M 55.511719 210.832031 C 55.511719 210.832031 56.660156 209.699219 58.566406 209.40625 C 58.566406 209.40625 55.128906 209.566406 52.566406 207.355469 C 52.566406 207.355469 53.9375 206.644531 55.816406 206.6875 C 55.816406 206.6875 52.578125 206.457031 49.667969 203.796875 C 49.667969 203.796875 51.0625 203.183594 52.925781 203.40625 C 52.925781 203.40625 49.417969 202.816406 47.011719 200.03125 C 47.011719 200.03125 49.097656 199.722656 50.171875 199.917969 C 50.171875 199.917969 47.460938 199.40625 46.09375 196.984375 C 46.09375 196.984375 40.464844 195.007812 39.878906 189.773438 C 39.878906 189.773438 43.027344 192.359375 46.078125 193.625 C 46.078125 193.625 45 192.601562 44.476562 191.273438 C 44.476562 191.273438 38.640625 188.042969 38.824219 182.875 C 38.824219 182.875 41.957031 185.808594 44.167969 187.15625 C 44.167969 187.15625 42.734375 185.75 42.484375 183.648438 C 42.484375 183.648438 37.5 179.703125 38.167969 173.828125 C 38.167969 173.828125 41.441406 178.324219 44.613281 181.082031 C 44.613281 181.082031 43.402344 179.035156 43.417969 176.640625 C 43.417969 176.640625 38.78125 170.441406 41.257812 165.207031 C 41.257812 165.207031 44.835938 175.46875 54.917969 184.660156 C 54.917969 184.660156 54.722656 182.640625 55.03125 181.566406 C 55.03125 181.566406 56.519531 184.5625 59.554688 187.347656 C 62.589844 190.128906 67.347656 192.339844 68.574219 195.597656 C 70.421875 200.515625 66.839844 203.015625 73.277344 207.753906 C 73.578125 210.121094 71.679688 212.074219 69.996094 212.972656 C 69.972656 212.8125 69.972656 212.636719 69.988281 212.449219 C 68.292969 214.167969 66.25 215.101562 63.527344 214.789062 C 63.84375 214.089844 64.859375 213.257812 65.5625 212.792969 C 63.722656 213.558594 61.449219 213.699219 59.585938 213.390625 C 60.273438 212.550781 61.507812 211.933594 62.464844 211.449219 C 61.113281 211.664062 57.839844 211.929688 55.511719 210.832031 Z M 55.511719 210.832031 " fill-opacity="1" fill-rule="evenodd"/></g><g clip-path="url(#63173b886f)"><path fill="#ffd700" d="M 59.644531 174.515625 C 60.355469 174.765625 61.492188 175.066406 63.269531 175.347656 C 66.144531 175.804688 69.804688 176.054688 73.578125 176.054688 C 77.355469 176.054688 81.015625 175.804688 83.886719 175.347656 C 85.667969 175.066406 86.800781 174.765625 87.515625 174.515625 C 86.800781 174.269531 85.667969 173.964844 83.886719 173.683594 C 81.015625 173.226562 77.355469 172.976562 73.578125 172.976562 C 69.804688 172.976562 66.144531 173.226562 63.269531 173.683594 C 61.492188 173.964844 60.355469 174.269531 59.644531 174.515625 Z M 73.578125 179.210938 C 69.089844 179.210938 64.851562 178.878906 61.648438 178.273438 C 60.015625 177.960938 58.710938 177.59375 57.773438 177.171875 C 57.1875 176.90625 56.734375 176.625 56.386719 176.304688 C 55.691406 175.660156 55.546875 174.976562 55.546875 174.515625 C 55.546875 174.054688 55.691406 173.371094 56.386719 172.730469 C 56.734375 172.40625 57.1875 172.125 57.773438 171.863281 C 58.710938 171.441406 60.015625 171.070312 61.648438 170.761719 C 64.851562 170.152344 69.089844 169.820312 73.578125 169.820312 C 78.070312 169.820312 82.308594 170.152344 85.507812 170.761719 C 87.140625 171.070312 88.445312 171.441406 89.386719 171.863281 C 89.972656 172.125 90.425781 172.40625 90.773438 172.730469 C 91.46875 173.371094 91.613281 174.054688 91.613281 174.515625 C 91.613281 174.976562 91.46875 175.660156 90.773438 176.304688 C 90.425781 176.625 89.972656 176.90625 89.386719 177.171875 C 88.445312 177.59375 87.140625 177.960938 85.507812 178.273438 C 82.308594 178.878906 78.070312 179.210938 73.578125 179.210938 " fill-opacity="1" fill-rule="nonzero"/></g><g clip-path="url(#6c6565cc2f)"><path fill="#ffd700" d="M 78.042969 161 C 78.527344 160.265625 79.015625 159.507812 79.421875 158.664062 C 79.628906 158.246094 79.796875 157.796875 79.941406 157.335938 C 80.011719 157.105469 80.0625 156.859375 80.113281 156.617188 C 80.144531 156.371094 80.191406 156.125 80.195312 155.867188 C 80.226562 155.363281 80.160156 154.84375 80.039062 154.347656 C 79.914062 153.847656 79.707031 153.386719 79.46875 152.960938 C 79.226562 152.53125 78.945312 152.148438 78.652344 151.789062 C 78.359375 151.425781 78.046875 151.101562 77.738281 150.777344 C 77.109375 150.128906 76.464844 149.578125 76.03125 148.90625 C 75.929688 148.738281 75.824219 148.566406 75.765625 148.386719 C 75.726562 148.296875 75.71875 148.207031 75.691406 148.117188 C 75.683594 148.070312 75.683594 148.023438 75.675781 147.976562 C 75.667969 147.929688 75.664062 147.882812 75.671875 147.835938 C 75.683594 147.460938 75.914062 147.078125 76.246094 146.777344 C 76.144531 146.824219 76.042969 146.871094 75.941406 146.925781 C 75.847656 146.992188 75.75 147.054688 75.660156 147.132812 C 75.582031 147.222656 75.484375 147.300781 75.425781 147.410156 L 75.328125 147.574219 L 75.257812 147.75 C 75.230469 147.8125 75.21875 147.871094 75.207031 147.9375 C 75.195312 148 75.183594 148.0625 75.175781 148.128906 C 75.175781 148.253906 75.160156 148.386719 75.183594 148.507812 C 75.1875 148.570312 75.195312 148.636719 75.207031 148.699219 L 75.246094 148.878906 C 75.273438 149.003906 75.320312 149.113281 75.355469 149.234375 C 75.527344 149.691406 75.769531 150.097656 76.03125 150.484375 C 76.160156 150.679688 76.300781 150.859375 76.429688 151.03125 L 76.824219 151.558594 C 77.339844 152.257812 77.851562 152.9375 78.191406 153.640625 C 78.359375 153.992188 78.503906 154.34375 78.574219 154.707031 C 78.65625 155.066406 78.699219 155.429688 78.671875 155.800781 C 78.675781 155.988281 78.636719 156.175781 78.617188 156.363281 C 78.582031 156.550781 78.539062 156.742188 78.492188 156.929688 C 78.390625 157.316406 78.261719 157.695312 78.101562 158.078125 C 77.792969 158.84375 77.394531 159.609375 77.003906 160.40625 C 76.617188 161.199219 76.230469 162.03125 75.980469 162.914062 C 75.730469 163.796875 75.621094 164.738281 75.789062 165.621094 C 76.109375 163.847656 77.074219 162.460938 78.042969 161 Z M 71.792969 169.089844 C 71.558594 168.824219 71.386719 168.53125 71.277344 168.226562 C 71.058594 167.613281 71.09375 166.953125 71.234375 166.300781 C 71.378906 165.644531 71.636719 164.996094 71.933594 164.359375 C 72.234375 163.726562 72.578125 163.101562 72.953125 162.492188 C 73.136719 162.183594 73.332031 161.882812 73.53125 161.585938 C 73.730469 161.285156 73.949219 160.964844 74.152344 160.644531 C 74.558594 160 74.945312 159.320312 75.246094 158.585938 C 75.542969 157.859375 75.769531 157.070312 75.78125 156.257812 C 75.800781 155.453125 75.605469 154.636719 75.167969 154.007812 C 75.183594 154.199219 75.222656 154.382812 75.226562 154.566406 L 75.238281 154.976562 L 75.226562 155.113281 L 75.203125 155.378906 C 75.195312 155.464844 75.171875 155.554688 75.160156 155.640625 C 75.140625 155.726562 75.132812 155.8125 75.109375 155.898438 L 75.039062 156.152344 C 74.851562 156.824219 74.535156 157.449219 74.171875 158.054688 C 73.804688 158.65625 73.390625 159.242188 72.957031 159.828125 L 72.292969 160.726562 C 72.070312 161.042969 71.855469 161.367188 71.652344 161.695312 C 71.25 162.359375 70.890625 163.058594 70.605469 163.796875 C 70.464844 164.164062 70.335938 164.542969 70.242188 164.9375 C 70.144531 165.324219 70.074219 165.730469 70.050781 166.140625 C 70.023438 166.554688 70.039062 166.976562 70.128906 167.398438 C 70.214844 167.8125 70.375 168.226562 70.617188 168.578125 C 70.863281 168.929688 71.175781 169.222656 71.53125 169.417969 C 71.882812 169.617188 72.257812 169.738281 72.632812 169.804688 C 72.320312 169.582031 72.03125 169.351562 71.792969 169.089844 Z M 69.371094 167.445312 C 68.515625 167.222656 67.769531 166.519531 67.375 165.667969 C 67.171875 165.242188 67.035156 164.777344 66.980469 164.296875 C 66.953125 164.058594 66.941406 163.808594 66.957031 163.574219 L 66.984375 163.21875 L 67 163.039062 L 67.03125 162.863281 C 67.1875 161.921875 67.574219 161.046875 68.019531 160.261719 C 68.464844 159.472656 68.980469 158.761719 69.449219 158.066406 C 69.925781 157.371094 70.363281 156.6875 70.6875 155.976562 C 70.78125 155.800781 70.835938 155.617188 70.90625 155.4375 C 70.980469 155.257812 71.03125 155.074219 71.082031 154.886719 C 71.179688 154.511719 71.246094 154.125 71.28125 153.734375 C 71.34375 152.953125 71.285156 152.152344 70.960938 151.46875 C 70.796875 151.132812 70.5625 150.828125 70.234375 150.597656 C 70.074219 150.480469 69.890625 150.390625 69.695312 150.316406 C 69.503906 150.234375 69.292969 150.191406 69.078125 150.140625 C 69.507812 150.058594 69.976562 150.0625 70.421875 150.21875 C 70.878906 150.367188 71.285156 150.679688 71.589844 151.058594 C 71.894531 151.445312 72.105469 151.890625 72.246094 152.347656 C 72.386719 152.804688 72.457031 153.277344 72.480469 153.746094 C 72.5 154.21875 72.476562 154.6875 72.402344 155.15625 C 72.363281 155.390625 72.320312 155.628906 72.246094 155.855469 C 72.179688 156.082031 72.117188 156.316406 72.023438 156.53125 C 71.6875 157.414062 71.203125 158.195312 70.710938 158.925781 C 69.714844 160.371094 68.652344 161.640625 68.199219 163.128906 C 68.089844 163.503906 68 163.882812 67.976562 164.257812 C 67.957031 164.640625 67.988281 165.03125 68.078125 165.414062 C 68.246094 166.183594 68.664062 166.917969 69.371094 167.445312 " fill-opacity="1" fill-rule="nonzero"/></g></svg>